<?xml version="1.0" encoding="UTF-8"?>
<svg xmlns="http://www.w3.org/2000/svg" width="229" height="50" viewBox="0 0 229 50" fill="none">
  <path d="M22.1784 47.0704C21.8449 47.0704 21.5114 46.9804 21.2125 46.8042C8.59407 39.3369 3.79892 28.625 2.00122 20.9541C0.0540277 12.6648 1.08895 6.17581 1.13495 5.90185C1.24227 5.25217 1.66391 4.70033 2.2542 4.43029C2.44585 4.34418 7.04551 2.2973 14.244 1.26408C20.8713 0.313042 31.0711 0.0860461 42.0183 4.39506C42.6239 4.6338 43.0685 5.16607 43.2065 5.81183C43.3445 6.4576 43.1529 7.13076 42.6967 7.60432L22.4735 28.5741C22.1132 28.9459 21.6226 29.1572 21.1128 29.1611C21.109 29.1611 21.109 29.1611 21.1051 29.1611C20.5953 29.1611 20.1047 28.9537 19.7444 28.5858L13.2512 21.956C12.4999 21.1889 12.4999 19.9482 13.2512 19.1811C14.0025 18.414 15.2176 18.414 15.9689 19.1811L21.0898 24.4099L37.8249 7.0564C22.2167 1.98812 8.5289 6.25017 4.79935 7.63172C4.61536 9.69817 4.41604 14.5199 5.77294 20.1948C8.0766 29.8343 13.5885 37.4426 22.1746 42.824C34.7508 34.9339 38.511 23.541 39.431 15.2752C39.5498 14.199 40.5042 13.424 41.5583 13.5454C42.6124 13.6667 43.3713 14.6412 43.2525 15.7175C42.2099 25.087 37.8709 38.0845 23.1405 46.8082C22.8454 46.9843 22.5119 47.0704 22.1784 47.0704Z" fill="white"></path>
  <path d="M169.313 6.06317H165.968L165.352 7.76885H164.295L167.068 0.142822H168.224L170.986 7.76885H169.93L169.313 6.06317ZM169.027 5.24885L167.641 1.37531L166.254 5.24885H169.027Z" fill="white"></path>
  <path d="M162.233 7.76892L160.406 4.63268H159.196V7.76892H158.195V0.098877H160.67C161.25 0.098877 161.738 0.197916 162.134 0.395995C162.538 0.594074 162.838 0.861847 163.036 1.19931C163.235 1.53678 163.334 1.92193 163.334 2.35477C163.334 2.88298 163.179 3.34883 162.871 3.75233C162.571 4.15582 162.116 4.42359 161.507 4.55565L163.433 7.76892H162.233ZM159.196 3.82936H160.67C161.213 3.82936 161.621 3.69731 161.892 3.4332C162.163 3.16176 162.299 2.80228 162.299 2.35477C162.299 1.89993 162.163 1.54779 161.892 1.29835C161.628 1.04892 161.221 0.924204 160.67 0.924204H159.196V3.82936Z" fill="white"></path>
  <path d="M151.858 0.098877V4.9518C151.858 5.63408 152.023 6.14028 152.353 6.47041C152.691 6.80054 153.157 6.9656 153.751 6.9656C154.338 6.9656 154.796 6.80054 155.126 6.47041C155.464 6.14028 155.633 5.63408 155.633 4.9518V0.098877H156.634V4.9408C156.634 5.57905 156.506 6.11827 156.249 6.55844C155.992 6.99128 155.644 7.31408 155.203 7.52683C154.771 7.73958 154.283 7.84595 153.74 7.84595C153.197 7.84595 152.705 7.73958 152.265 7.52683C151.832 7.31408 151.488 6.99128 151.231 6.55844C150.981 6.11827 150.857 5.57905 150.857 4.9408V0.098877H151.858Z" fill="white"></path>
  <path d="M148.234 2.32215C148.022 1.87464 147.714 1.52983 147.31 1.28774C146.907 1.03831 146.437 0.913589 145.901 0.913589C145.366 0.913589 144.882 1.03831 144.449 1.28774C144.023 1.52983 143.686 1.88197 143.437 2.34416C143.194 2.799 143.073 3.32721 143.073 3.92879C143.073 4.53036 143.194 5.05857 143.437 5.51342C143.686 5.96826 144.023 6.3204 144.449 6.56984C144.882 6.81193 145.366 6.93298 145.901 6.93298C146.65 6.93298 147.266 6.70922 147.75 6.26171C148.234 5.8142 148.517 5.20896 148.598 4.44599H145.538V3.63167H149.665V4.40197C149.606 5.03289 149.408 5.61245 149.071 6.14066C148.733 6.66154 148.289 7.07604 147.739 7.38416C147.189 7.68495 146.576 7.83534 145.901 7.83534C145.19 7.83534 144.541 7.67027 143.954 7.34014C143.367 7.00267 142.901 6.53682 142.556 5.94259C142.219 5.34835 142.05 4.67708 142.05 3.92879C142.05 3.18049 142.219 2.50922 142.556 1.91499C142.901 1.31341 143.367 0.847563 143.954 0.517431C144.541 0.179964 145.19 0.0112305 145.901 0.0112305C146.716 0.0112305 147.435 0.212977 148.058 0.616471C148.689 1.01996 149.148 1.58852 149.434 2.32215H148.234Z" fill="white"></path>
  <path d="M137.894 0.913462V3.47748H140.689V4.30281H137.894V6.94386H141.019V7.76919H136.892V0.0881348H141.019V0.913462H137.894Z" fill="white"></path>
  <path d="M132.975 7.84612C132.469 7.84612 132.014 7.75808 131.611 7.58201C131.215 7.3986 130.903 7.14917 130.676 6.83371C130.448 6.51092 130.331 6.14044 130.323 5.72227H131.391C131.428 6.08175 131.574 6.3862 131.831 6.63564C132.095 6.87773 132.477 6.99878 132.975 6.99878C133.452 6.99878 133.826 6.8814 134.098 6.64664C134.377 6.40454 134.516 6.09642 134.516 5.72227C134.516 5.42882 134.435 5.19039 134.274 5.00699C134.113 4.82358 133.911 4.68419 133.669 4.58882C133.427 4.49345 133.1 4.39074 132.689 4.2807C132.183 4.14865 131.776 4.0166 131.468 3.88454C131.167 3.75249 130.907 3.54708 130.687 3.2683C130.474 2.98218 130.367 2.6007 130.367 2.12384C130.367 1.70568 130.474 1.3352 130.687 1.0124C130.899 0.689607 131.196 0.440174 131.578 0.264105C131.967 0.0880348 132.411 0 132.909 0C133.628 0 134.215 0.179738 134.67 0.539214C135.132 0.89869 135.393 1.37555 135.451 1.96978H134.351C134.314 1.67633 134.16 1.41956 133.889 1.19948C133.617 0.972053 133.258 0.858341 132.81 0.858341C132.392 0.858341 132.051 0.968384 131.787 1.18847C131.523 1.40122 131.391 1.70201 131.391 2.09083C131.391 2.36961 131.468 2.59703 131.622 2.7731C131.783 2.94917 131.978 3.08489 132.205 3.18026C132.44 3.2683 132.766 3.37101 133.185 3.48838C133.691 3.62777 134.098 3.76716 134.406 3.90655C134.714 4.0386 134.978 4.24769 135.198 4.5338C135.418 4.81258 135.528 5.19406 135.528 5.67825C135.528 6.0524 135.429 6.40454 135.231 6.73467C135.033 7.06481 134.74 7.33258 134.351 7.53799C133.962 7.74341 133.504 7.84612 132.975 7.84612Z" fill="white"></path>
  <path d="M124.949 6.06317H121.603L120.987 7.76885H119.931L122.704 0.142822H123.859L126.621 7.76885H125.565L124.949 6.06317ZM124.663 5.24885L123.276 1.37531L121.889 5.24885H124.663Z" fill="white"></path>
  <path d="M117.868 7.76892L116.042 4.63268H114.831V7.76892H113.83V0.098877H116.306C116.885 0.098877 117.373 0.197916 117.769 0.395995C118.173 0.594074 118.474 0.861847 118.672 1.19931C118.87 1.53678 118.969 1.92193 118.969 2.35477C118.969 2.88298 118.815 3.34883 118.507 3.75233C118.206 4.15582 117.751 4.42359 117.142 4.55565L119.068 7.76892H117.868ZM114.831 3.82936H116.306C116.849 3.82936 117.256 3.69731 117.527 3.4332C117.799 3.16176 117.934 2.80228 117.934 2.35477C117.934 1.89993 117.799 1.54779 117.527 1.29835C117.263 1.04892 116.856 0.924204 116.306 0.924204H114.831V3.82936Z" fill="white"></path>
  <path d="M112.695 2.34377C112.695 2.98202 112.475 3.5139 112.035 3.9394C111.602 4.35757 110.938 4.56665 110.043 4.56665H108.569V7.76892H107.567V0.098877H110.043C110.909 0.098877 111.566 0.30796 112.013 0.726126C112.468 1.14429 112.695 1.68351 112.695 2.34377ZM110.043 3.74132C110.601 3.74132 111.012 3.62028 111.276 3.37818C111.54 3.13608 111.672 2.79128 111.672 2.34377C111.672 1.39739 111.129 0.924204 110.043 0.924204H108.569V3.74132H110.043Z" fill="white"></path>
  <path d="M105.979 0.154053V7.76908H104.978V2.09082L102.447 7.76908H101.742L99.2004 2.07982V7.76908H98.199V0.154053H99.2774L102.095 6.44855L104.912 0.154053H105.979Z" fill="white"></path>
  <path d="M93.1353 7.84634C92.4237 7.84634 91.7745 7.68128 91.1876 7.35115C90.6007 7.01368 90.1348 6.54783 89.79 5.95359C89.4525 5.35202 89.2838 4.67708 89.2838 3.92879C89.2838 3.18049 89.4525 2.50922 89.79 1.91499C90.1348 1.31341 90.6007 0.847563 91.1876 0.517431C91.7745 0.179964 92.4237 0.0112305 93.1353 0.0112305C93.8543 0.0112305 94.5072 0.179964 95.0941 0.517431C95.681 0.847563 96.1432 1.30975 96.4807 1.90398C96.8181 2.49822 96.9869 3.17315 96.9869 3.92879C96.9869 4.68442 96.8181 5.35935 96.4807 5.95359C96.1432 6.54783 95.681 7.01368 95.0941 7.35115C94.5072 7.68128 93.8543 7.84634 93.1353 7.84634ZM93.1353 6.977C93.6709 6.977 94.1514 6.85228 94.5769 6.60285C95.0098 6.35342 95.3472 5.99761 95.5893 5.53542C95.8387 5.07324 95.9635 4.53769 95.9635 3.92879C95.9635 3.31254 95.8387 2.777 95.5893 2.32215C95.3472 1.85996 95.0134 1.50416 94.5879 1.25472C94.1624 1.00529 93.6782 0.880576 93.1353 0.880576C92.5925 0.880576 92.1083 1.00529 91.6828 1.25472C91.2573 1.50416 90.9198 1.85996 90.6704 2.32215C90.4283 2.777 90.3072 3.31254 90.3072 3.92879C90.3072 4.53769 90.4283 5.07324 90.6704 5.53542C90.9198 5.99761 91.2573 6.35342 91.6828 6.60285C92.1156 6.85228 92.5998 6.977 93.1353 6.977Z" fill="white"></path>
  <path d="M80.8935 3.92856C80.8935 3.18026 81.0622 2.509 81.3997 1.91476C81.7372 1.31319 82.1957 0.843668 82.7752 0.506201C83.3621 0.168734 84.0114 0 84.723 0C85.5593 0 86.2893 0.201747 86.9129 0.60524C87.5365 1.00873 87.9913 1.58096 88.2774 2.32192H87.0779C86.8652 1.85974 86.5571 1.50393 86.1536 1.2545C85.7574 1.00507 85.2806 0.880349 84.723 0.880349C84.1875 0.880349 83.7069 1.00507 83.2814 1.2545C82.8559 1.50393 82.5221 1.85974 82.28 2.32192C82.0379 2.77677 81.9169 3.31232 81.9169 3.92856C81.9169 4.53747 82.0379 5.07301 82.28 5.5352C82.5221 5.99005 82.8559 6.34219 83.2814 6.59162C83.7069 6.84105 84.1875 6.96577 84.723 6.96577C85.2806 6.96577 85.7574 6.84472 86.1536 6.60262C86.5571 6.35319 86.8652 5.99738 87.0779 5.5352H88.2774C87.9913 6.26882 87.5365 6.83738 86.9129 7.24088C86.2893 7.63703 85.5593 7.83511 84.723 7.83511C84.0114 7.83511 83.3621 7.67005 82.7752 7.33991C82.1957 7.00245 81.7372 6.5366 81.3997 5.94236C81.0622 5.34812 80.8935 4.67686 80.8935 3.92856Z" fill="white"></path>
  <path d="M75.6728 6.06317H72.3275L71.7113 7.76885H70.6548L73.4279 0.142822H74.5834L77.3455 7.76885H76.2891L75.6728 6.06317ZM75.3867 5.24885L74.0002 1.37531L72.6136 5.24885H75.3867Z" fill="white"></path>
  <path d="M64.8024 0.098877V4.9518C64.8024 5.63408 64.9675 6.14028 65.2976 6.47041C65.6351 6.80054 66.1009 6.9656 66.6951 6.9656C67.282 6.9656 67.7406 6.80054 68.0707 6.47041C68.4082 6.14028 68.5769 5.63408 68.5769 4.9518V0.098877H69.5783V4.9408C69.5783 5.57905 69.4499 6.11827 69.1931 6.55844C68.9364 6.99128 68.5879 7.31408 68.1477 7.52683C67.7149 7.73958 67.227 7.84595 66.6841 7.84595C66.1413 7.84595 65.6497 7.73958 65.2096 7.52683C64.7767 7.31408 64.4319 6.99128 64.1751 6.55844C63.9257 6.11827 63.801 5.57905 63.801 4.9408V0.098877H64.8024Z" fill="white"></path>
  <path d="M59.9065 7.84612C59.4003 7.84612 58.9455 7.75808 58.542 7.58201C58.1458 7.3986 57.8341 7.14917 57.6066 6.83371C57.3792 6.51092 57.2618 6.14044 57.2545 5.72227H58.3219C58.3586 6.08175 58.5053 6.3862 58.7621 6.63564C59.0262 6.87773 59.4077 6.99878 59.9065 6.99878C60.3834 6.99878 60.7575 6.8814 61.029 6.64664C61.3078 6.40454 61.4472 6.09642 61.4472 5.72227C61.4472 5.42882 61.3665 5.19039 61.2051 5.00699C61.0437 4.82358 60.8419 4.68419 60.5998 4.58882C60.3577 4.49345 60.0313 4.39074 59.6204 4.2807C59.1142 4.14865 58.7071 4.0166 58.3989 3.88454C58.0982 3.75249 57.8377 3.54708 57.6176 3.2683C57.4049 2.98218 57.2985 2.6007 57.2985 2.12384C57.2985 1.70568 57.4049 1.3352 57.6176 1.0124C57.8304 0.689607 58.1275 0.440174 58.509 0.264105C58.8978 0.0880348 59.3417 0 59.8405 0C60.5595 0 61.1464 0.179738 61.6012 0.539214C62.0634 0.89869 62.3238 1.37555 62.3825 1.96978H61.2821C61.2454 1.67633 61.0913 1.41956 60.8199 1.19948C60.5485 0.972053 60.189 0.858341 59.7415 0.858341C59.3233 0.858341 58.9822 0.968384 58.7181 1.18847C58.454 1.40122 58.3219 1.70201 58.3219 2.09083C58.3219 2.36961 58.3989 2.59703 58.553 2.7731C58.7144 2.94917 58.9088 3.08489 59.1362 3.18026C59.371 3.2683 59.6975 3.37101 60.1156 3.48838C60.6218 3.62777 61.029 3.76716 61.3371 3.90655C61.6452 4.0386 61.9093 4.24769 62.1294 4.5338C62.3495 4.81258 62.4596 5.19406 62.4596 5.67825C62.4596 6.0524 62.3605 6.40454 62.1624 6.73467C61.9644 7.06481 61.6709 7.33258 61.2821 7.53799C60.8933 7.74341 60.4348 7.84612 59.9065 7.84612Z" fill="white"></path>
  <path d="M136.371 49.5055C135.659 49.5055 135.01 49.3405 134.423 49.0103C133.836 48.6729 133.37 48.207 133.025 47.6128C132.688 47.0112 132.519 46.3363 132.519 45.588C132.519 44.8397 132.688 44.1684 133.025 43.5742C133.37 42.9726 133.836 42.5067 134.423 42.1766C135.01 41.8391 135.659 41.6704 136.371 41.6704C137.09 41.6704 137.743 41.8391 138.329 42.1766C138.916 42.5067 139.379 42.9689 139.716 43.5632C140.053 44.1574 140.222 44.8323 140.222 45.588C140.222 46.3436 140.053 47.0185 139.716 47.6128C139.379 48.207 138.916 48.6729 138.329 49.0103C137.743 49.3405 137.09 49.5055 136.371 49.5055ZM136.371 48.6362C136.906 48.6362 137.387 48.5115 137.812 48.262C138.245 48.0126 138.583 47.6568 138.825 47.1946C139.074 46.7324 139.199 46.1969 139.199 45.588C139.199 44.9717 139.074 44.4362 138.825 43.9813C138.583 43.5191 138.249 43.1633 137.823 42.9139C137.398 42.6645 136.914 42.5398 136.371 42.5398C135.828 42.5398 135.344 42.6645 134.918 42.9139C134.493 43.1633 134.155 43.5191 133.906 43.9813C133.664 44.4362 133.543 44.9717 133.543 45.588C133.543 46.1969 133.664 46.7324 133.906 47.1946C134.155 47.6568 134.493 48.0126 134.918 48.262C135.351 48.5115 135.835 48.6362 136.371 48.6362Z" fill="white"></path>
  <path d="M127.611 41.7585C128.447 41.7585 129.17 41.9163 129.779 42.2317C130.395 42.5399 130.864 42.9837 131.187 43.5633C131.517 44.1428 131.682 44.8251 131.682 45.6101C131.682 46.3951 131.517 47.0773 131.187 47.6569C130.864 48.2291 130.395 48.6693 129.779 48.9774C129.17 49.2782 128.447 49.4286 127.611 49.4286H125.223V41.7585H127.611ZM127.611 48.6033C128.601 48.6033 129.357 48.3428 129.878 47.822C130.399 47.2937 130.659 46.5565 130.659 45.6101C130.659 44.6564 130.395 43.9117 129.867 43.3762C129.346 42.8406 128.594 42.5729 127.611 42.5729H126.224V48.6033H127.611Z" fill="white"></path>
  <path d="M123.626 41.7585V49.4286H122.625V41.7585H123.626Z" fill="white"></path>
  <path d="M119.98 43.9813C119.768 43.5338 119.459 43.189 119.056 42.9469C118.652 42.6975 118.183 42.5728 117.647 42.5728C117.112 42.5728 116.628 42.6975 116.195 42.9469C115.769 43.189 115.432 43.5412 115.182 44.0033C114.94 44.4582 114.819 44.9864 114.819 45.588C114.819 46.1895 114.94 46.7177 115.182 47.1726C115.432 47.6274 115.769 47.9796 116.195 48.229C116.628 48.4711 117.112 48.5922 117.647 48.5922C118.396 48.5922 119.012 48.3684 119.496 47.9209C119.98 47.4734 120.263 46.8681 120.343 46.1052H117.284V45.2908H121.411V46.0612C121.352 46.6921 121.154 47.2716 120.817 47.7998C120.479 48.3207 120.035 48.7352 119.485 49.0433C118.935 49.3441 118.322 49.4945 117.647 49.4945C116.936 49.4945 116.287 49.3295 115.7 48.9993C115.113 48.6619 114.647 48.196 114.302 47.6018C113.965 47.0075 113.796 46.3363 113.796 45.588C113.796 44.8397 113.965 44.1684 114.302 43.5742C114.647 42.9726 115.113 42.5067 115.7 42.1766C116.287 41.8391 116.936 41.6704 117.647 41.6704C118.462 41.6704 119.181 41.8722 119.804 42.2757C120.435 42.6791 120.894 43.2477 121.18 43.9813H119.98Z" fill="white"></path>
  <path d="M109.64 42.5729V45.1369H112.435V45.9622H109.64V48.6033H112.765V49.4286H108.638V41.7476H112.765V42.5729H109.64Z" fill="white"></path>
  <path d="M107.515 41.7585V42.5729H105.425V49.4286H104.423V42.5729H102.321V41.7585H107.515Z" fill="white"></path>
  <path d="M97.7311 49.5055C97.0194 49.5055 96.3702 49.3405 95.7833 49.0103C95.1964 48.6729 94.7305 48.207 94.3857 47.6128C94.0483 47.0112 93.8795 46.3363 93.8795 45.588C93.8795 44.8397 94.0483 44.1684 94.3857 43.5742C94.7305 42.9726 95.1964 42.5067 95.7833 42.1766C96.3702 41.8391 97.0194 41.6704 97.7311 41.6704C98.45 41.6704 99.1029 41.8391 99.6898 42.1766C100.277 42.5067 100.739 42.9689 101.076 43.5632C101.414 44.1574 101.583 44.8323 101.583 45.588C101.583 46.3436 101.414 47.0185 101.076 47.6128C100.739 48.207 100.277 48.6729 99.6898 49.0103C99.1029 49.3405 98.45 49.5055 97.7311 49.5055ZM97.7311 48.6362C98.2666 48.6362 98.7471 48.5115 99.1726 48.262C99.6055 48.0126 99.9429 47.6568 100.185 47.1946C100.434 46.7324 100.559 46.1969 100.559 45.588C100.559 44.9717 100.434 44.4362 100.185 43.9813C99.9429 43.5191 99.6091 43.1633 99.1836 42.9139C98.7581 42.6645 98.2739 42.5398 97.7311 42.5398C97.1882 42.5398 96.704 42.6645 96.2785 42.9139C95.853 43.1633 95.5155 43.5191 95.2661 43.9813C95.024 44.4362 94.9029 44.9717 94.9029 45.588C94.9029 46.1969 95.024 46.7324 95.2661 47.1946C95.5155 47.6568 95.853 48.0126 96.2785 48.262C96.7113 48.5115 97.1955 48.6362 97.7311 48.6362Z" fill="white"></path>
  <path d="M91.7073 49.4286L89.8806 46.2923H88.6701V49.4286H87.6687V41.7585H90.1447C90.7243 41.7585 91.2121 41.8576 91.6083 42.0557C92.0118 42.2537 92.3126 42.5215 92.5106 42.859C92.7087 43.1964 92.8078 43.5816 92.8078 44.0144C92.8078 44.5427 92.6537 45.0085 92.3456 45.412C92.0448 45.8155 91.5899 46.0833 90.981 46.2153L92.9068 49.4286H91.7073ZM88.6701 45.489H90.1447C90.6876 45.489 91.0947 45.357 91.3662 45.0929C91.6376 44.8214 91.7733 44.462 91.7733 44.0144C91.7733 43.5596 91.6376 43.2075 91.3662 42.958C91.1021 42.7086 90.6949 42.5839 90.1447 42.5839H88.6701V45.489Z" fill="white"></path>
  <path d="M86.5342 44.0034C86.5342 44.6417 86.3141 45.1736 85.8739 45.5991C85.4411 46.0172 84.7771 46.2263 83.8821 46.2263H82.4075V49.4286H81.4061V41.7585H83.8821C84.7478 41.7585 85.4044 41.9676 85.8519 42.3858C86.3067 42.804 86.5342 43.3432 86.5342 44.0034ZM83.8821 45.401C84.4397 45.401 84.8505 45.2799 85.1146 45.0378C85.3787 44.7958 85.5107 44.4509 85.5107 44.0034C85.5107 43.0571 84.9679 42.5839 83.8821 42.5839H82.4075V45.401H83.8821Z" fill="white"></path>
  <path d="M74.052 42.5729V45.1369H76.8471V45.9622H74.052V48.6033H77.1772V49.4286H73.0506V41.7476H77.1772V42.5729H74.052Z" fill="white"></path>
  <path d="M71.9281 41.7585V42.5729H69.8373V49.4286H68.8359V42.5729H66.7341V41.7585H71.9281Z" fill="white"></path>
  <path d="M65.6104 41.7585V49.4286H64.609V41.7585H65.6104Z" fill="white"></path>
  <path d="M60.6925 49.5055C60.1863 49.5055 59.7314 49.4175 59.3279 49.2414C58.9318 49.058 58.62 48.8086 58.3925 48.4931C58.1651 48.1703 58.0477 47.7999 58.0404 47.3817H59.1078C59.1445 47.7412 59.2912 48.0456 59.548 48.2951C59.8121 48.5372 60.1936 48.6582 60.6925 48.6582C61.1693 48.6582 61.5435 48.5408 61.8149 48.3061C62.0937 48.064 62.2331 47.7558 62.2331 47.3817C62.2331 47.0882 62.1524 46.8498 61.991 46.6664C61.8296 46.483 61.6278 46.3436 61.3857 46.2482C61.1436 46.1529 60.8172 46.0502 60.4063 45.9401C59.9001 45.8081 59.493 45.676 59.1849 45.544C58.8841 45.4119 58.6236 45.2065 58.4035 44.9277C58.1908 44.6416 58.0844 44.2601 58.0844 43.7833C58.0844 43.3651 58.1908 42.9946 58.4035 42.6718C58.6163 42.349 58.9134 42.0996 59.2949 41.9235C59.6837 41.7475 60.1276 41.6594 60.6264 41.6594C61.3454 41.6594 61.9323 41.8392 62.3871 42.1986C62.8493 42.5581 63.1097 43.035 63.1684 43.6292H62.068C62.0313 43.3358 61.8773 43.079 61.6058 42.8589C61.3344 42.6315 60.9749 42.5178 60.5274 42.5178C60.1092 42.5178 59.7681 42.6278 59.504 42.8479C59.2399 43.0606 59.1078 43.3614 59.1078 43.7503C59.1078 44.029 59.1849 44.2565 59.3389 44.4325C59.5003 44.6086 59.6947 44.7443 59.9221 44.8397C60.1569 44.9277 60.4834 45.0304 60.9015 45.1478C61.4077 45.2872 61.8149 45.4266 62.123 45.566C62.4311 45.698 62.6953 45.9071 62.9153 46.1932C63.1354 46.472 63.2455 46.8535 63.2455 47.3377C63.2455 47.7118 63.1464 48.064 62.9484 48.3941C62.7503 48.7242 62.4568 48.992 62.068 49.1974C61.6792 49.4028 61.2207 49.5055 60.6925 49.5055Z" fill="white"></path>
  <path d="M222.963 28.3412H228.069V31.3501H219.065V15.3481H222.963V28.3412Z" fill="white"></path>
  <path d="M211.059 31.5098C209.888 31.5098 208.84 31.3198 207.913 30.9399C206.986 30.56 206.241 29.9977 205.679 29.2531C205.132 28.5085 204.843 27.6119 204.813 26.5633H208.961C209.022 27.156 209.227 27.6119 209.577 27.931C209.926 28.235 210.382 28.3869 210.945 28.3869C211.522 28.3869 211.978 28.2577 212.312 27.9994C212.647 27.7259 212.814 27.3536 212.814 26.8825C212.814 26.4874 212.677 26.1606 212.404 25.9023C212.145 25.6439 211.818 25.4312 211.423 25.264C211.043 25.0969 210.496 24.9069 209.782 24.6942C208.749 24.375 207.905 24.0559 207.252 23.7368C206.598 23.4177 206.036 22.9466 205.565 22.3235C205.094 21.7005 204.858 20.8874 204.858 19.8845C204.858 18.3952 205.398 17.2327 206.477 16.3969C207.556 15.5459 208.961 15.1204 210.694 15.1204C212.457 15.1204 213.878 15.5459 214.957 16.3969C216.035 17.2327 216.613 18.4028 216.689 19.9073H212.472C212.442 19.3906 212.252 18.9879 211.902 18.6991C211.553 18.3952 211.104 18.2432 210.557 18.2432C210.086 18.2432 209.706 18.3724 209.417 18.6308C209.129 18.8739 208.984 19.231 208.984 19.7021C208.984 20.2188 209.227 20.6215 209.714 20.9102C210.2 21.199 210.96 21.5105 211.993 21.8448C213.027 22.1943 213.862 22.5287 214.501 22.8478C215.154 23.1669 215.716 23.6304 216.187 24.2383C216.659 24.8461 216.894 25.6287 216.894 26.5861C216.894 27.4979 216.659 28.3261 216.187 29.0708C215.732 29.8154 215.063 30.4081 214.181 30.8488C213.3 31.2894 212.259 31.5098 211.059 31.5098Z" fill="white"></path>
  <path d="M197.263 31.5098C196.092 31.5098 195.044 31.3198 194.117 30.9399C193.19 30.56 192.445 29.9977 191.883 29.2531C191.336 28.5085 191.047 27.6119 191.017 26.5633H195.165C195.226 27.156 195.431 27.6119 195.781 27.931C196.13 28.235 196.586 28.3869 197.149 28.3869C197.726 28.3869 198.182 28.2577 198.516 27.9994C198.851 27.7259 199.018 27.3536 199.018 26.8825C199.018 26.4874 198.881 26.1606 198.607 25.9023C198.349 25.6439 198.022 25.4312 197.627 25.264C197.247 25.0969 196.7 24.9069 195.986 24.6942C194.953 24.375 194.109 24.0559 193.456 23.7368C192.802 23.4177 192.24 22.9466 191.769 22.3235C191.298 21.7005 191.062 20.8874 191.062 19.8845C191.062 18.3952 191.602 17.2327 192.681 16.3969C193.76 15.5459 195.165 15.1204 196.898 15.1204C198.661 15.1204 200.081 15.5459 201.16 16.3969C202.239 17.2327 202.817 18.4028 202.893 19.9073H198.676C198.645 19.3906 198.455 18.9879 198.106 18.6991C197.756 18.3952 197.308 18.2432 196.761 18.2432C196.29 18.2432 195.91 18.3724 195.621 18.6308C195.333 18.8739 195.188 19.231 195.188 19.7021C195.188 20.2188 195.431 20.6215 195.918 20.9102C196.404 21.199 197.164 21.5105 198.197 21.8448C199.23 22.1943 200.066 22.5287 200.705 22.8478C201.358 23.1669 201.92 23.6304 202.391 24.2383C202.862 24.8461 203.098 25.6287 203.098 26.5861C203.098 27.4979 202.862 28.3261 202.391 29.0708C201.935 29.8154 201.267 30.4081 200.385 30.8488C199.504 31.2894 198.463 31.5098 197.263 31.5098Z" fill="white"></path>
  <path d="M178.374 31.5324C177.128 31.5324 176.003 31.2665 175 30.7346C174.013 30.2027 173.23 29.4429 172.652 28.4551C172.09 27.4674 171.809 26.3124 171.809 24.9903C171.809 23.6834 172.098 22.5361 172.675 21.5483C173.253 20.5454 174.043 19.7779 175.046 19.2461C176.049 18.7142 177.173 18.4482 178.42 18.4482C179.666 18.4482 180.79 18.7142 181.793 19.2461C182.796 19.7779 183.586 20.5454 184.164 21.5483C184.741 22.5361 185.03 23.6834 185.03 24.9903C185.03 26.2972 184.734 27.4522 184.141 28.4551C183.564 29.4429 182.766 30.2027 181.748 30.7346C180.745 31.2665 179.62 31.5324 178.374 31.5324ZM178.374 28.1588C179.119 28.1588 179.749 27.8853 180.266 27.3382C180.798 26.7911 181.064 26.0085 181.064 24.9903C181.064 23.9722 180.805 23.1896 180.289 22.6425C179.787 22.0954 179.164 21.8219 178.42 21.8219C177.66 21.8219 177.029 22.0954 176.528 22.6425C176.026 23.1744 175.775 23.957 175.775 24.9903C175.775 26.0085 176.018 26.7911 176.505 27.3382C177.006 27.8853 177.629 28.1588 178.374 28.1588Z" fill="white"></path>
  <path d="M156.566 24.968C156.566 23.6611 156.809 22.5138 157.295 21.526C157.797 20.5382 158.473 19.7784 159.324 19.2465C160.175 18.7146 161.125 18.4487 162.173 18.4487C163.009 18.4487 163.769 18.6235 164.453 18.973C165.152 19.3225 165.699 19.7936 166.094 20.3863V14.4824H169.992V31.3505H166.094V29.527C165.729 30.1348 165.205 30.6211 164.521 30.9858C163.853 31.3505 163.07 31.5329 162.173 31.5329C161.125 31.5329 160.175 31.267 159.324 30.7351C158.473 30.188 157.797 29.4206 157.295 28.4328C156.809 27.4298 156.566 26.2749 156.566 24.968ZM166.094 24.9908C166.094 24.0182 165.821 23.2508 165.274 22.6885C164.742 22.1263 164.088 21.8451 163.313 21.8451C162.538 21.8451 161.877 22.1263 161.33 22.6885C160.798 23.2356 160.532 23.9954 160.532 24.968C160.532 25.9406 160.798 26.7156 161.33 27.2931C161.877 27.8554 162.538 28.1365 163.313 28.1365C164.088 28.1365 164.742 27.8554 165.274 27.2931C165.821 26.7308 166.094 25.9634 166.094 24.9908Z" fill="white"></path>
  <path d="M141.323 24.9675C141.323 23.6606 141.566 22.5133 142.052 21.5255C142.554 20.5378 143.23 19.7779 144.081 19.2461C144.932 18.7142 145.882 18.4482 146.93 18.4482C147.827 18.4482 148.61 18.6306 149.278 18.9953C149.962 19.36 150.486 19.8387 150.851 20.4314V18.6306H154.749V31.3501H150.851V29.5493C150.471 30.142 149.939 30.6206 149.255 30.9854C148.587 31.3501 147.804 31.5324 146.908 31.5324C145.874 31.5324 144.932 31.2665 144.081 30.7346C143.23 30.1875 142.554 29.4201 142.052 28.4324C141.566 27.4294 141.323 26.2744 141.323 24.9675ZM150.851 24.9903C150.851 24.0178 150.577 23.2503 150.03 22.6881C149.499 22.1258 148.845 21.8447 148.07 21.8447C147.295 21.8447 146.634 22.1258 146.087 22.6881C145.555 23.2351 145.289 23.995 145.289 24.9675C145.289 25.9401 145.555 26.7151 146.087 27.2926C146.634 27.8549 147.295 28.136 148.07 28.136C148.845 28.136 149.499 27.8549 150.03 27.2926C150.577 26.7303 150.851 25.9629 150.851 24.9903Z" fill="white"></path>
  <path d="M127.749 24.9903C127.749 23.6682 128.015 22.5133 128.547 21.5255C129.094 20.5378 129.846 19.7779 130.804 19.2461C131.776 18.7142 132.886 18.4482 134.132 18.4482C135.727 18.4482 137.057 18.8661 138.121 19.702C139.2 20.5378 139.906 21.7155 140.241 23.2351H136.092C135.743 22.2626 135.066 21.7763 134.063 21.7763C133.349 21.7763 132.779 22.0574 132.354 22.6197C131.928 23.1668 131.716 23.957 131.716 24.9903C131.716 26.0237 131.928 26.8215 132.354 27.3838C132.779 27.9309 133.349 28.2044 134.063 28.2044C135.066 28.2044 135.743 27.7181 136.092 26.7455H140.241C139.906 28.2348 139.2 29.4049 138.121 30.2559C137.042 31.1069 135.712 31.5324 134.132 31.5324C132.886 31.5324 131.776 31.2665 130.804 30.7346C129.846 30.2027 129.094 29.4429 128.547 28.4551C128.015 27.4674 127.749 26.3124 127.749 24.9903Z" fill="white"></path>
  <path d="M123.99 17.3088C123.306 17.3088 122.744 17.1113 122.303 16.7162C121.878 16.3059 121.665 15.8044 121.665 15.2117C121.665 14.6039 121.878 14.1024 122.303 13.7073C122.744 13.2969 123.306 13.0918 123.99 13.0918C124.659 13.0918 125.206 13.2969 125.631 13.7073C126.072 14.1024 126.292 14.6039 126.292 15.2117C126.292 15.8044 126.072 16.3059 125.631 16.7162C125.206 17.1113 124.659 17.3088 123.99 17.3088ZM125.928 18.6309V31.3504H122.03V18.6309H125.928Z" fill="white"></path>
  <path d="M120.426 21.8675H118.329V31.3501H114.431V21.8675H113.018V18.6306H114.431V18.2659C114.431 16.7007 114.879 15.5153 115.776 14.7099C116.672 13.8893 117.987 13.479 119.719 13.479C120.008 13.479 120.221 13.4866 120.358 13.5018V16.807C119.613 16.7614 119.089 16.8678 118.785 17.1262C118.481 17.3845 118.329 17.848 118.329 18.5166V18.6306H120.426V21.8675Z" fill="white"></path>
  <path d="M109.509 17.3088C108.825 17.3088 108.263 17.1113 107.822 16.7162C107.397 16.3059 107.184 15.8044 107.184 15.2117C107.184 14.6039 107.397 14.1024 107.822 13.7073C108.263 13.2969 108.825 13.0918 109.509 13.0918C110.178 13.0918 110.725 13.2969 111.15 13.7073C111.591 14.1024 111.811 14.6039 111.811 15.2117C111.811 15.8044 111.591 16.3059 111.15 16.7162C110.725 17.1113 110.178 17.3088 109.509 17.3088ZM111.447 18.6309V31.3504H107.549V18.6309H111.447Z" fill="white"></path>
  <path d="M105.606 28.0453V31.3506H103.622C102.209 31.3506 101.107 31.0087 100.317 30.3248C99.5269 29.6258 99.1318 28.4936 99.1318 26.9284V21.868H97.5818V18.6311H99.1318V15.531H103.03V18.6311H105.583V21.868H103.03V26.974C103.03 27.3539 103.121 27.6274 103.303 27.7946C103.486 27.9618 103.79 28.0453 104.215 28.0453H105.606Z" fill="white"></path>
  <path d="M92.892 20.7508C93.3479 20.0518 93.9178 19.5047 94.6016 19.1096C95.2855 18.6993 96.0453 18.4941 96.8811 18.4941V22.62H95.8098C94.8372 22.62 94.1077 22.8327 93.6215 23.2582C93.1352 23.6686 92.892 24.398 92.892 25.4465V31.3504H88.9941V18.6309H92.892V20.7508Z" fill="white"></path>
  <path d="M87.1657 24.7852C87.1657 25.1499 87.143 25.5298 87.0974 25.9249H78.2758C78.3366 26.7151 78.5873 27.323 79.028 27.7485C79.4839 28.1588 80.0386 28.364 80.692 28.364C81.6646 28.364 82.3409 27.9537 82.7208 27.133H86.8694C86.6567 27.9689 86.2692 28.7211 85.7069 29.3897C85.1598 30.0584 84.4684 30.5827 83.6326 30.9626C82.7967 31.3425 81.8622 31.5324 80.8288 31.5324C79.5827 31.5324 78.4733 31.2665 77.5008 30.7346C76.5282 30.2027 75.7684 29.4429 75.2213 28.4551C74.6742 27.4674 74.4007 26.3124 74.4007 24.9903C74.4007 23.6682 74.6666 22.5133 75.1985 21.5255C75.7456 20.5378 76.5054 19.7779 77.478 19.2461C78.4505 18.7142 79.5675 18.4482 80.8288 18.4482C82.0597 18.4482 83.1539 18.7066 84.1112 19.2233C85.0686 19.7399 85.8133 20.477 86.3451 21.4344C86.8922 22.3917 87.1657 23.5087 87.1657 24.7852ZM83.1767 23.7594C83.1767 23.0908 82.9487 22.5589 82.4928 22.1638C82.0369 21.7687 81.4671 21.5711 80.7832 21.5711C80.1298 21.5711 79.5751 21.7611 79.1192 22.141C78.6785 22.5209 78.405 23.0604 78.2986 23.7594H83.1767Z" fill="white"></path>
  <path d="M57.3794 23.3265C57.3794 21.7461 57.7213 20.3404 58.4051 19.1095C59.089 17.8634 60.0388 16.8984 61.2545 16.2146C62.4854 15.5155 63.8759 15.166 65.4259 15.166C67.3255 15.166 68.9515 15.6675 70.304 16.6705C71.6565 17.6734 72.5607 19.0411 73.0166 20.7735H68.7312C68.412 20.1049 67.9561 19.5958 67.3635 19.2463C66.786 18.8968 66.125 18.722 65.3803 18.722C64.1798 18.722 63.2072 19.1399 62.4626 19.9757C61.718 20.8115 61.3457 21.9285 61.3457 23.3265C61.3457 24.7246 61.718 25.8416 62.4626 26.6774C63.2072 27.5132 64.1798 27.9311 65.3803 27.9311C66.125 27.9311 66.786 27.7563 67.3635 27.4068C67.9561 27.0573 68.412 26.5482 68.7312 25.8796H73.0166C72.5607 27.612 71.6565 28.9796 70.304 29.9826C68.9515 30.9704 67.3255 31.4643 65.4259 31.4643C63.8759 31.4643 62.4854 31.1224 61.2545 30.4385C60.0388 29.7395 59.089 28.7745 58.4051 27.5436C57.7213 26.3127 57.3794 24.907 57.3794 23.3265Z" fill="white"></path>
</svg>
