<svg xmlns="http://www.w3.org/2000/svg" viewBox="0 0 24 24" fill="currentColor">
  <path d="M12.04 2c-5.46 0-9.91 4.45-9.91 9.91 0 1.75.46 3.45 1.32 4.95L2.05 22l5.25-1.38c1.45.79 3.08 1.21 4.74 1.21 5.46 0 9.91-4.45 9.91-9.91 0-2.65-1.03-5.14-2.9-7.01A9.816 9.816 0 0 0 12.04 2z"/>
  <path fill="#25D366" d="M12.04 3.84c-4.5 0-8.16 3.66-8.16 8.16 0 1.59.46 3.14 1.33 4.47l.19.29-.83 3.04 3.12-.82.3.18c1.24.75 2.66 1.14 4.05 1.14 4.5 0 8.16-3.66 8.16-8.16 0-2.18-.85-4.23-2.39-5.77a8.163 8.163 0 0 0-5.77-2.39z"/>
  <path fill="#fff" d="M17.43 13.94c-.24-.12-1.43-.71-1.65-.79-.22-.08-.38-.12-.54.12-.16.25-.62.79-.76.95-.14.16-.28.18-.52.06-.24-.12-1.02-.38-1.94-1.2-.72-.64-1.2-1.43-1.34-1.67-.14-.24-.02-.37.1-.49.11-.11.24-.28.36-.42.12-.14.16-.24.24-.4.08-.16.04-.3-.02-.42-.06-.12-.54-1.31-.74-1.79-.2-.48-.4-.42-.54-.42-.14 0-.3-.02-.46-.02-.16 0-.42.06-.64.3-.22.24-.84.82-.84 2 0 1.18.86 2.32.98 2.48.12.16 1.71 2.6 4.13 3.65.58.25 1.03.4 1.38.51.58.18 1.11.16 1.53.1.47-.07 1.43-.59 1.63-1.15.2-.56.2-1.04.14-1.15-.06-.1-.22-.16-.46-.28z"/>
</svg>